<svg xmlns="http://www.w3.org/2000/svg" width="720" height="400" viewBox="0 0 720 400"><rect width="100%" height="100%" fill="#DDDDDD"/><path fill="#999999" d="M145.225 165.295h47.95v5.14q0 2.3-.48 3.72-.48 1.41-.96 2.37l-26.31 54.15q-.81 1.68-2.3 2.85-1.49 1.18-3.98 1.18h-8.6l26.84-53.04q.91-1.63 1.8-3 .88-1.37 1.99-2.62h-33.22q-1.1 0-1.92-.81-.81-.82-.81-1.92v-8.02Zm80.49 58.37h17.81q1.92 0 3.05 1.08t1.13 2.86v7.1h-47.62v-3.94q0-1.2.5-2.52.51-1.32 1.61-2.37l21.07-21.12q2.64-2.69 4.73-5.14 2.09-2.45 3.48-4.85 1.39-2.4 2.14-4.87.74-2.47.74-5.21 0-2.49-.72-4.39-.72-1.89-2.04-3.19t-3.17-1.94q-1.84-.65-4.15-.65-2.11 0-3.91.6-1.8.6-3.19 1.68t-2.35 2.52q-.96 1.44-1.44 3.17-.82 2.2-2.12 2.92-1.29.72-3.74.34l-6.24-1.1q.72-5 2.78-8.76 2.07-3.77 5.16-6.29 3.1-2.52 7.11-3.79 4.01-1.28 8.61-1.28 4.8 0 8.79 1.42 3.98 1.42 6.81 4.01 2.84 2.59 4.42 6.24 1.58 3.65 1.58 8.11 0 3.84-1.12 7.1-1.13 3.27-3.03 6.24-1.89 2.98-4.44 5.76-2.54 2.79-5.33 5.67l-15.64 15.98q2.25-.67 4.48-1.03 2.24-.36 4.25-.36Zm79.68-23.66q0 9.07-1.94 15.76-1.95 6.7-5.38 11.07-3.43 4.37-8.11 6.5-4.68 2.14-10.1 2.14-5.43 0-10.06-2.14-4.63-2.13-8.04-6.5-3.41-4.37-5.33-11.07-1.92-6.69-1.92-15.76 0-9.12 1.92-15.8 1.92-6.67 5.33-11.04 3.41-4.36 8.04-6.5 4.63-2.14 10.06-2.14 5.42 0 10.1 2.14t8.11 6.5q3.43 4.37 5.38 11.04 1.94 6.68 1.94 15.8Zm-12.24 0q0-7.54-1.1-12.48-1.11-4.95-2.95-7.88-1.85-2.92-4.25-4.1-2.4-1.18-4.99-1.18-2.55 0-4.92 1.18-2.38 1.18-4.2 4.1-1.83 2.93-2.91 7.88-1.08 4.94-1.08 12.48 0 7.53 1.08 12.48 1.08 4.94 2.91 7.87 1.82 2.93 4.2 4.1 2.37 1.18 4.92 1.18 2.59 0 4.99-1.18 2.4-1.17 4.25-4.1 1.84-2.93 2.95-7.87 1.1-4.95 1.1-12.48Zm88.47 18.81-6.29 6.19-16.27-16.27-16.42 16.37-6.29-6.19 16.42-16.47-15.65-15.64 6.24-6.24 15.65 15.64 15.55-15.55 6.34 6.24-15.6 15.6 16.32 16.32Zm41.56-10.27h21.12v-22.7q0-3.22.44-7.11l-21.56 29.81Zm31.44 0h8.74v6.86q0 .96-.62 1.66-.63.7-1.78.7h-6.34v16.94h-10.32v-16.94h-29.28q-1.2 0-2.11-.75-.91-.74-1.15-1.85l-1.25-6 32.88-43.92h11.23v43.3Zm64.47-8.54q0 9.07-1.95 15.76-1.94 6.7-5.37 11.07t-8.11 6.5q-4.68 2.14-10.11 2.14-5.42 0-10.05-2.14-4.64-2.13-8.04-6.5-3.41-4.37-5.33-11.07-1.92-6.69-1.92-15.76 0-9.12 1.92-15.8 1.92-6.67 5.33-11.04 3.4-4.36 8.04-6.5 4.63-2.14 10.05-2.14 5.43 0 10.11 2.14t8.11 6.5q3.43 4.37 5.37 11.04 1.95 6.68 1.95 15.8Zm-12.24 0q0-7.54-1.11-12.48-1.1-4.95-2.95-7.88-1.85-2.92-4.25-4.1-2.4-1.18-4.99-1.18-2.54 0-4.92 1.18-2.37 1.18-4.2 4.1-1.82 2.93-2.9 7.88-1.08 4.94-1.08 12.48 0 7.53 1.08 12.48 1.08 4.94 2.9 7.87 1.83 2.93 4.2 4.1 2.38 1.18 4.92 1.18 2.59 0 4.99-1.18 2.4-1.17 4.25-4.1 1.85-2.93 2.95-7.87 1.11-4.95 1.11-12.48Zm67.92 0q0 9.07-1.95 15.76-1.94 6.7-5.37 11.07t-8.11 6.5q-4.68 2.14-10.11 2.14-5.42 0-10.05-2.14-4.64-2.13-8.04-6.5-3.41-4.37-5.33-11.07-1.92-6.69-1.92-15.76 0-9.12 1.92-15.8 1.92-6.67 5.33-11.04 3.4-4.36 8.04-6.5 4.63-2.14 10.05-2.14 5.43 0 10.11 2.14t8.11 6.5q3.43 4.37 5.37 11.04 1.95 6.68 1.95 15.8Zm-12.24 0q0-7.54-1.11-12.48-1.1-4.95-2.95-7.88-1.85-2.92-4.25-4.1-2.4-1.18-4.99-1.18-2.54 0-4.92 1.18-2.37 1.18-4.2 4.1-1.82 2.93-2.9 7.88-1.08 4.94-1.08 12.48 0 7.53 1.08 12.48 1.08 4.94 2.9 7.87 1.83 2.93 4.2 4.1 2.38 1.18 4.92 1.18 2.59 0 4.99-1.18 2.4-1.17 4.25-4.1 1.85-2.93 2.95-7.87 1.11-4.95 1.11-12.48Z"/></svg>